<svg xmlns="http://www.w3.org/2000/svg" xmlns:xlink="http://www.w3.org/1999/xlink" width="483" height="325" viewBox="0 0 483 325">
  <defs>
    <style>
      .cls-1 {
        fill: #ff2da4;
        opacity: 0.9;
      }

      .cls-2, .cls-5 {
        fill: #00b1ff;
      }

      .cls-2, .cls-4 {
        stroke: #fff;
        stroke-width: 2px;
      }

      .cls-3 {
        fill: #fff;
        font-size: 20px;
        font-family: Minguk-Regular, Yoon Minguk;
        letter-spacing: 0.03em;
      }

      .cls-4 {
        fill: none;
        stroke-linecap: round;
      }

      .cls-6, .cls-7 {
        stroke: none;
      }

      .cls-7 {
        fill: #fff;
      }

      .cls-8 {
        filter: url(#사각형_148);
      }
    </style>
    <filter id="사각형_148" x="0" y="0" width="483" height="325" filterUnits="userSpaceOnUse">
      <feOffset dx="4" dy="4" input="SourceAlpha"/>
      <feGaussianBlur stdDeviation="4" result="blur"/>
      <feFlood flood-opacity="0.6"/>
      <feComposite operator="in" in2="blur"/>
      <feComposite in="SourceGraphic"/>
    </filter>
  </defs>
  <g id="그룹_68" data-name="그룹 68" transform="translate(-330 -238)">
    <g class="cls-8" transform="matrix(1, 0, 0, 1, 330, 238)">
      <rect id="사각형_148-2" data-name="사각형 148" class="cls-1" width="459" height="301" rx="23" transform="translate(8 8)"/>
    </g>
    <path id="패스_15" data-name="패스 15" class="cls-2" d="M52.407-7.7v3.888A20.913,20.913,0,0,1,52.083.648a4.408,4.408,0,0,1-2.106,3.118,9.782,9.782,0,0,1-4.941,1.013q-.891,0-3-.162V-62.532h7.614q2.754,0,2.754,2.673v21.546a27.4,27.4,0,0,1,4.617-.486,6.612,6.612,0,0,1,3.24.648,3.981,3.981,0,0,1,1.7,2.025,7.13,7.13,0,0,1,.4,2.673,9.927,9.927,0,0,1-1.458,5.346H52.407ZM19.683-55.647a15.073,15.073,0,0,1,12.474,5.832q4.617,5.832,4.617,16.686t-4.5,16q-4.5,5.144-12.6,5.144t-12.6-5.144q-4.5-5.143-4.5-16T7.209-49.815A15.073,15.073,0,0,1,19.683-55.647Zm0,34.1a5.525,5.525,0,0,0,4.982-2.835q1.741-2.835,1.741-9.4,0-6.48-1.782-9.6a5.476,5.476,0,0,0-4.941-3.118,5.534,5.534,0,0,0-5.022,3.118q-1.782,3.119-1.782,9.6,0,6.561,1.742,9.4A5.593,5.593,0,0,0,19.683-21.546ZM125.631-13.77q2.754,0,2.754,2.673V-4.86H71.2q-2.754,0-2.754-2.673V-13.77H92.583v-9.315q-12.231-1.458-14.256-9.558a35.155,35.155,0,0,1-.81-8.424,63.866,63.866,0,0,1,1.62-14.661h37.341q2.754,0,2.754,2.673v25.92A43.72,43.72,0,0,1,104.247-23v9.234ZM87.885-47.061q-.324,4.05-.324,5.427a15.877,15.877,0,0,0,.77,5.548A5.609,5.609,0,0,0,90.8-33.129a13.143,13.143,0,0,0,4.7,1.377,38.156,38.156,0,0,0,4.374.243,35.8,35.8,0,0,0,9.72-1.3V-47.061ZM192.051-13.77q2.754,0,2.754,2.673V-4.86H137.619q-2.754,0-2.754-2.673V-13.77H159v-9.315q-12.231-1.458-14.256-9.558a35.155,35.155,0,0,1-.81-8.424,63.866,63.866,0,0,1,1.62-14.661H182.9q2.754,0,2.754,2.673v25.92A43.72,43.72,0,0,1,170.667-23v9.234ZM154.3-47.061q-.324,4.05-.324,5.427a15.878,15.878,0,0,0,.769,5.548,5.609,5.609,0,0,0,2.471,2.957,13.143,13.143,0,0,0,4.7,1.377,38.156,38.156,0,0,0,4.374.243,35.8,35.8,0,0,0,9.72-1.3V-47.061Z" transform="translate(469 412)"/>
    <text id="당신의_전장에_친구가_필요한_순간" data-name="당신의 전장에 친구가 필요한 순간" class="cls-3" transform="translate(423 324)"><tspan x="0" y="0">당신의 전장에 친구가 필요한 순간</tspan></text>
    <text id="당신에게_꼭_맞는_친구를_찾아드립니다_" data-name="당신에게 꼭 맞는 친구를 찾아드립니다!" class="cls-3" transform="translate(400 454)"><tspan x="0" y="0">당신에게 꼭 맞는 친구를 찾아드립니다!</tspan></text>
    <text id="가" class="cls-3" transform="translate(671 407)"><tspan x="0" y="0">가</tspan></text>
    <g id="그룹_40" data-name="그룹 40" transform="translate(556 505.69)">
      <line id="선_24" data-name="선 24" class="cls-4" x1="11.097" y1="13.151"/>
      <line id="선_25" data-name="선 25" class="cls-4" y1="13.151" x2="11.097" transform="translate(11.097)"/>
    </g>
    <g id="그룹_42" data-name="그룹 42" transform="translate(556 493.69)">
      <line id="선_24-2" data-name="선 24" class="cls-4" x1="11.097" y1="13.151"/>
      <line id="선_25-2" data-name="선 25" class="cls-4" y1="13.151" x2="11.097" transform="translate(11.097)"/>
    </g>
    <g id="합치기_5" data-name="합치기 5" class="cls-5" transform="translate(442 348)">
      <path class="cls-6" d="M 11.50009059906006 23.98805618286133 C 11.32608985900879 23.98805618286133 10.89323997497559 23.93916511535645 10.63265991210938 23.48628616333008 L 8.341500282287598 19.50135612487793 L 8.053130149841309 18.99979591369629 L 7.47458028793335 18.99979591369629 L 3.456900358200073 18.99979591369629 C 2.936400175094604 18.99979591369629 2.678350210189819 18.65090560913086 2.591560363769531 18.50090599060059 C 2.50471019744873 18.35080528259277 2.33076024055481 17.95291519165039 2.590450286865234 17.50119590759277 L 4.604380130767822 13.99843597412109 L 4.890970230102539 13.49999523162842 L 4.604380130767822 13.00155544281006 L 2.590420246124268 9.49875545501709 C 2.33076024055481 9.047085762023926 2.50471019744873 8.649195671081543 2.591560363769531 8.499095916748047 C 2.678350210189819 8.349095344543457 2.936400175094604 8.000195503234863 3.456900358200073 8.000195503234863 L 7.47458028793335 8.000195503234863 L 8.053130149841309 8.000195503234863 L 8.341500282287598 7.498635768890381 L 10.63282012939453 3.51343560218811 C 10.89323997497559 3.060835599899292 11.32608032226563 3.011945724487305 11.50009059906006 3.011945724487305 C 11.67399024963379 3.011945724487305 12.10654067993164 3.060795545578003 12.36658000946045 3.513265609741211 L 14.65828037261963 7.498685836791992 L 14.94666004180908 8.000195503234863 L 15.52517986297607 8.000195503234863 L 19.54260063171387 8.000195503234863 C 20.06349945068359 8.000195503234863 20.32180976867676 8.349445343017578 20.40868949890137 8.499606132507324 C 20.49551010131836 8.649675369262695 20.66944122314453 9.047435760498047 20.40995979309082 9.498785972595215 L 18.39581108093262 13.00150585174561 L 18.10917091369629 13.49999523162842 L 18.39581108093262 13.99848556518555 L 20.40999984741211 17.50128555297852 C 20.66944122314453 17.95256614685059 20.49551010131836 18.35032653808594 20.40868949890137 18.50038528442383 C 20.32180976867676 18.65054512023926 20.06351089477539 18.99979591369629 19.54260063171387 18.99979591369629 L 15.52517986297607 18.99979591369629 L 14.94666004180908 18.99979591369629 L 14.65828037261963 19.50131607055664 L 12.36670017242432 23.48652648925781 C 12.10654067993164 23.93920516967773 11.67399024963379 23.98805618286133 11.50009059906006 23.98805618286133 Z"/>
      <path class="cls-7" d="M 11.49978923797607 22.9880542755127 C 11.49979305267334 22.9880485534668 11.49979686737061 22.9880428314209 11.49980068206787 22.98803520202637 L 13.79137992858887 19.0028247833252 L 14.36815071105957 17.99979591369629 L 15.52517986297607 17.99979591369629 L 19.54260063171387 17.99979591369629 C 19.5427417755127 17.99979591369629 19.54288101196289 17.99979591369629 19.54301834106445 17.99979400634766 C 19.54303550720215 17.99976539611816 19.54305076599121 17.9997386932373 19.54310035705566 17.99976539611816 L 17.52890968322754 14.4969654083252 L 16.95562934875488 13.49999523162842 L 17.52890968322754 12.50302600860596 L 19.54301071166992 9.000375747680664 C 19.54302787780762 9.000345230102539 19.54304504394531 9.000316619873047 19.54306221008301 9.000286102294922 C 19.54304504394531 9.000256538391113 19.54302597045898 9.000226020812988 19.54300880432129 9.00019645690918 C 19.54287338256836 9.000195503234863 19.54273796081543 9.000195503234863 19.54260063171387 9.000195503234863 L 15.52517986297607 9.000195503234863 L 14.36815071105957 9.000195503234863 L 13.79137992858887 7.997165679931641 L 11.49979114532471 4.011946678161621 C 11.49976253509521 4.011947154998779 11.49973297119141 4.011947154998779 11.49974060058594 4.011885643005371 L 9.208419799804688 7.997085571289063 L 8.631680488586426 9.000195503234863 L 7.47458028793335 9.000195503234863 L 3.457277297973633 9.000195503234863 C 3.457298517227173 9.000232696533203 3.457319021224976 9.000268936157227 3.457340240478516 9.000306129455566 L 5.47130012512207 12.50310611724854 L 6.044470310211182 13.49999523162842 L 5.47130012512207 14.49688529968262 L 3.457390308380127 17.99959564208984 C 3.457351684570313 17.99966239929199 3.457313776016235 17.99972915649414 3.457275867462158 17.99979591369629 L 7.47458028793335 17.99979591369629 L 8.631680488586426 17.99979591369629 L 9.208430290222168 19.00291633605957 L 11.49943065643311 22.9875659942627 C 11.49952507019043 22.98773193359375 11.49961948394775 22.98789405822754 11.49971199035645 22.9880542755127 C 11.49973773956299 22.9880542755127 11.49976348876953 22.9880542755127 11.49978923797607 22.9880542755127 M 11.50009059906006 24.98805618286133 C 10.82542037963867 24.98805618286133 10.15065002441406 24.65369606018066 9.765900611877441 23.98500633239746 L 7.47458028793335 19.99979591369629 L 3.456900358200073 19.99979591369629 C 1.918800234794617 19.99979591369629 0.9567002654075623 18.33660507202148 1.72350025177002 17.0027961730957 L 3.737460374832153 13.49999523162842 L 1.72350025177002 9.997195243835449 C 0.9567002654075623 8.663405418395996 1.918800234794617 7.000195503234863 3.456900358200073 7.000195503234863 L 7.47458028793335 7.000195503234863 L 9.765900611877441 3.014995574951172 C 10.15065002441406 2.346295595169067 10.82542514801025 2.011945724487305 11.50008773803711 2.011945724487305 C 12.17475032806396 2.011945724487305 12.84930038452148 2.346295595169067 13.23360061645508 3.014995574951172 L 15.52517986297607 7.000195503234863 L 19.54260063171387 7.000195503234863 C 21.0806999206543 7.000195503234863 22.043701171875 8.663405418395996 21.27689933776855 9.997195243835449 L 19.26271057128906 13.49999523162842 L 21.27689933776855 17.0027961730957 C 22.043701171875 18.33660507202148 21.0806999206543 19.99979591369629 19.54260063171387 19.99979591369629 L 15.52517986297607 19.99979591369629 L 13.23360061645508 23.98500633239746 C 12.84930038452148 24.65369606018066 12.17475032806396 24.98805618286133 11.50009059906006 24.98805618286133 Z"/>
    </g>
  </g>
</svg>
