<svg xmlns="http://www.w3.org/2000/svg" width="59" height="39" viewBox="0 0 59 39">
  <defs>
    <style>
      .cls-1 {
        fill: #fff;
      }
    </style>
  </defs>
  <g id="그룹_69" data-name="그룹 69" transform="translate(-1569 -629)">
    <circle id="타원_35" data-name="타원 35" class="cls-1" cx="10" cy="10" r="10" transform="translate(1589 629)"/>
    <path id="사각형_202" data-name="사각형 202" class="cls-1" d="M13.5,0h0A13.5,13.5,0,0,1,27,13.5V17a0,0,0,0,1,0,0H0a0,0,0,0,1,0,0V13.5A13.5,13.5,0,0,1,13.5,0Z" transform="translate(1585 651)"/>
    <circle id="타원_35-2" data-name="타원 35" class="cls-1" cx="9" cy="9" r="9" transform="translate(1607 633)"/>
    <path id="사각형_202-2" data-name="사각형 202" class="cls-1" d="M12,0h0A12,12,0,0,1,24,12v3a0,0,0,0,1,0,0H0a0,0,0,0,1,0,0V12A12,12,0,0,1,12,0Z" transform="translate(1604 653)"/>
    <circle id="타원_35-3" data-name="타원 35" class="cls-1" cx="9" cy="9" r="9" transform="translate(1572 633)"/>
    <path id="사각형_202-3" data-name="사각형 202" class="cls-1" d="M12,0h0A12,12,0,0,1,24,12v3a0,0,0,0,1,0,0H0a0,0,0,0,1,0,0V12A12,12,0,0,1,12,0Z" transform="translate(1569 653)"/>
  </g>
</svg>
